<svg width="48" height="48" viewBox="0 0 48 48" fill="none" xmlns="http://www.w3.org/2000/svg">
<path fill-rule="evenodd" clip-rule="evenodd" d="M13.4545 14.0937C12.1994 15.6185 11.4386 17.7015 11.4386 19.8772C11.4386 21.1386 11.6655 22.3467 12.0661 23.4965H19.5322L22.4447 18.5526L24.2646 24.634L26.4911 21.9002H32.0702V23.5416H27.3335L23.5425 28.195L21.9237 22.7858L20.538 25.1371H8V23.4957H10.266C9.9054 22.32 9.72132 21.1014 9.7193 19.8764C9.7193 17.3527 10.597 14.9078 12.1022 13.0793C13.6118 11.2458 15.785 10 18.3433 10C21.3546 10 23.6448 11.611 25.193 13.8852C26.7403 11.6119 29.0313 10 32.0435 10C34.601 10 36.775 11.2458 38.2846 13.0801C39.7881 14.9078 40.6667 17.3535 40.6667 19.8772C40.6667 25.2791 36.7604 29.7905 33.0656 32.8698C30.8173 34.7284 28.3698 36.3553 25.7638 37.7234L25.634 37.7891L25.5996 37.8071L25.5893 37.8112L25.5867 37.8129C25.5867 37.8129 25.585 37.8137 25.193 37.0833L24.8199 37.8219L24.8147 37.8203L24.8027 37.8145L24.7597 37.794C24.5066 37.6728 24.2556 37.5478 24.0067 37.4189C23.3083 37.056 22.6219 36.6723 21.9487 36.2683C20.2715 35.2638 18.0716 33.784 16.0016 31.8915C14.8978 30.882 13.8267 29.7495 12.8897 28.5036C12.8201 28.4163 12.7696 28.3166 12.7411 28.2103C12.7126 28.1041 12.7067 27.9934 12.7237 27.885C12.7407 27.7765 12.7804 27.6724 12.8403 27.5788C12.9002 27.4852 12.9791 27.404 13.0725 27.34C13.1658 27.276 13.2716 27.2306 13.3837 27.2063C13.4957 27.182 13.6117 27.1795 13.7248 27.1987C13.8379 27.218 13.9458 27.2587 14.0422 27.3185C14.1385 27.3782 14.2214 27.4558 14.2858 27.5467C15.1497 28.6957 16.1478 29.7519 17.1914 30.7064C19.1505 32.4988 21.2489 33.9112 22.8625 34.878C23.6189 35.3316 24.3925 35.7584 25.1818 36.1575L25.3984 36.0418C27.724 34.7818 29.9133 33.3053 31.9343 31.6338C35.5466 28.6226 38.9474 24.5306 38.9474 19.8764C38.9474 17.7015 38.1866 15.6177 36.9323 14.0929C35.6807 12.5746 33.9726 11.6414 32.0435 11.6414C29.376 11.6414 27.3069 13.2992 25.9649 15.9107L25.193 17.411L24.421 15.9107C23.0791 13.2992 21.0099 11.6414 18.3433 11.6414C16.4134 11.6414 14.7053 12.5737 13.4545 14.0937ZM25.193 37.0833L24.8199 37.8219L25.205 38L25.5858 37.8137L25.193 37.0833Z" fill="#1C1B19"/>
</svg>
