<svg width="48" height="48" viewBox="0 0 48 48" fill="none" xmlns="http://www.w3.org/2000/svg">
<path d="M33.6957 36.7263H26.2831V30.5846V29.7846H25.4831H22.0239H21.2239V30.5846V36.7263H14.3055C14.2032 36.7263 14.1171 36.6439 14.1171 36.5346V27.433V26.633H13.3171H11.9767C11.3308 26.633 10.8 26.1043 10.8 25.4497C10.8 25.1355 10.9254 24.8332 11.1473 24.6106L23.869 11.8554L23.8697 11.8547C23.8872 11.8372 23.9077 11.8234 23.9301 11.8141C23.9525 11.8048 23.9765 11.8 24.0006 11.8C24.0247 11.8 24.0486 11.8048 24.071 11.8141C24.0935 11.8234 24.114 11.8372 24.1314 11.8547L24.1322 11.8554L36.8539 24.6106C37.315 25.0733 37.3151 25.8242 36.8558 26.2868L36.8546 26.288C36.6359 26.5093 36.338 26.633 36.0245 26.633H34.684H33.884V27.433V36.5346C33.884 36.6439 33.798 36.7263 33.6957 36.7263Z" fill="#FAF9F7" stroke="#1C1B19" stroke-width="1.6"/>
</svg>
