<svg width="36" height="32" viewBox="0 0 36 32" fill="none" xmlns="http://www.w3.org/2000/svg">
<g clip-path="url(#clip0_2_4827)">
<path d="M0.499822 31.983C0.627889 32.0164 0.763948 31.9979 0.878508 31.9317C0.993067 31.8654 1.07689 31.7566 1.11182 31.629C2.14182 27.786 6.32782 26.79 8.82982 26.194C9.45682 26.045 9.95182 25.927 10.2738 25.788C13.1238 24.551 14.0528 22.561 14.3308 21.109C14.3474 21.0226 14.3408 20.9334 14.3118 20.8503C14.2829 20.7673 14.2325 20.6934 14.1658 20.636C12.6818 19.355 11.4298 17.432 10.6398 15.22C10.6175 15.1566 10.5825 15.0984 10.5368 15.049C9.49182 13.913 8.89182 12.712 8.89182 11.755C8.89182 11.196 9.10282 10.821 9.57782 10.538C9.64897 10.4955 9.70843 10.4359 9.75085 10.3647C9.79327 10.2935 9.81731 10.2128 9.82082 10.13C10.0418 5.03599 13.6698 1.02599 18.1198 0.999991L18.2268 1.00699C22.6988 1.06899 26.3038 5.16499 26.4328 10.331C26.4346 10.4016 26.4514 10.471 26.4821 10.5346C26.5128 10.5983 26.5567 10.6546 26.6108 10.7C26.9238 10.965 27.0698 11.301 27.0698 11.757C27.0698 12.558 26.6428 13.543 25.8688 14.529C25.8319 14.5764 25.8035 14.6299 25.7848 14.687C24.9848 17.223 23.5488 19.462 21.8468 20.832C21.7763 20.8889 21.7225 20.9639 21.6912 21.0489C21.6599 21.134 21.6521 21.2259 21.6688 21.315C21.9468 22.766 22.8758 24.755 25.7258 25.994C26.0628 26.14 26.5858 26.254 27.2488 26.397C29.7258 26.933 33.8708 27.832 34.8878 31.629C34.9049 31.6924 34.9343 31.7519 34.9743 31.8039C35.0144 31.856 35.0643 31.8997 35.1212 31.9324C35.1781 31.9652 35.241 31.9865 35.3061 31.995C35.3712 32.0035 35.4374 31.9991 35.5008 31.982C35.5642 31.9649 35.6237 31.9355 35.6758 31.8955C35.7278 31.8554 35.7715 31.8055 35.8043 31.7486C35.8371 31.6917 35.8583 31.6289 35.8668 31.5637C35.8753 31.4986 35.8709 31.4324 35.8538 31.369C34.6788 26.982 29.9828 25.965 27.4608 25.419C26.8758 25.292 26.3708 25.183 26.1248 25.075C24.2648 24.267 23.1188 23.036 22.7138 21.41C24.4408 19.927 25.8858 17.639 26.7118 15.073C27.5888 13.933 28.0708 12.759 28.0708 11.756C28.0708 11.087 27.8548 10.529 27.4268 10.093C27.1888 4.48899 23.1898 0.0759907 18.2268 0.00499072L18.0778 0.00299072C13.2048 0.0289907 9.18882 4.32599 8.83782 9.83299C8.21182 10.293 7.89382 10.938 7.89382 11.757C7.89382 12.94 8.56282 14.355 9.73382 15.653C10.5428 17.876 11.7968 19.829 13.2898 21.196C12.8868 22.828 11.7398 24.063 9.87582 24.872C9.63482 24.977 9.15482 25.092 8.59882 25.224C6.05782 25.828 1.32982 26.953 0.145822 31.371C0.111628 31.4991 0.129713 31.6355 0.196098 31.7503C0.262483 31.8651 0.371733 31.9488 0.499822 31.983Z" fill="#767573"/>
</g>
<defs>
<clipPath id="clip0_2_4827">
<rect width="36" height="32" fill="white"/>
</clipPath>
</defs>
</svg>
