<svg width="48" height="48" viewBox="0 0 48 48" fill="none" xmlns="http://www.w3.org/2000/svg">
<path d="M25.5538 10C25.7601 10 25.9579 10.0819 26.1038 10.2278C26.2497 10.3737 26.3316 10.5715 26.3316 10.7778V13.8889C26.3316 14.0952 26.2497 14.293 26.1038 14.4389C25.9579 14.5847 25.7601 14.6667 25.5538 14.6667C25.3475 14.6667 25.1497 14.5847 25.0038 14.4389C24.858 14.293 24.776 14.0952 24.776 13.8889V13.1111H20.1094V11.5556H24.776V10.7778C24.776 10.5715 24.858 10.3737 25.0038 10.2278C25.1497 10.0819 25.3475 10 25.5538 10Z" fill="#1C1B19"/>
<path d="M17.776 10C17.5698 10 17.3719 10.0819 17.2261 10.2278C17.0802 10.3737 16.9983 10.5715 16.9983 10.7778V11.5556H15.4427C14.8239 11.5556 14.2304 11.8014 13.7928 12.239C13.3552 12.6766 13.1094 13.2701 13.1094 13.8889V32.5556C13.1094 33.1744 13.3552 33.7679 13.7928 34.2055C14.2304 34.6431 14.8239 34.8889 15.4427 34.8889H28.6649C29.2838 34.8889 29.8773 34.6431 30.3148 34.2055C30.7524 33.7679 30.9983 33.1744 30.9983 32.5556V13.8889C30.9983 13.2701 30.7524 12.6766 30.3148 12.239C29.8773 11.8014 29.2838 11.5556 28.6649 11.5556H27.8872V13.1111H28.6649C28.8712 13.1111 29.069 13.1931 29.2149 13.3389C29.3608 13.4848 29.4427 13.6826 29.4427 13.8889V32.5556C29.4427 32.7618 29.3608 32.9597 29.2149 33.1055C29.069 33.2514 28.8712 33.3333 28.6649 33.3333H15.4427C15.2364 33.3333 15.0386 33.2514 14.8927 33.1055C14.7469 32.9597 14.6649 32.7618 14.6649 32.5556V13.8889C14.6649 13.6826 14.7469 13.4848 14.8927 13.3389C15.0386 13.1931 15.2364 13.1111 15.4427 13.1111H16.9983V13.8889C16.9983 14.0952 17.0802 14.293 17.2261 14.4389C17.3719 14.5847 17.5698 14.6667 17.776 14.6667C17.9823 14.6667 18.1802 14.5847 18.326 14.4389C18.4719 14.293 18.5538 14.0952 18.5538 13.8889V10.7778C18.5538 10.5715 18.4719 10.3737 18.326 10.2278C18.1802 10.0819 17.9823 10 17.776 10Z" fill="#1C1B19"/>
<path d="M16.2227 20.1098C16.2227 19.9035 16.3046 19.7057 16.4505 19.5598C16.5963 19.414 16.7942 19.332 17.0004 19.332H27.1115C27.3178 19.332 27.5157 19.414 27.6615 19.5598C27.8074 19.7057 27.8893 19.9035 27.8893 20.1098C27.8893 20.3161 27.8074 20.5139 27.6615 20.6598C27.5157 20.8056 27.3178 20.8876 27.1115 20.8876H17.0004C16.7942 20.8876 16.5963 20.8056 16.4505 20.6598C16.3046 20.5139 16.2227 20.3161 16.2227 20.1098ZM17.0004 23.2209C16.7942 23.2209 16.5963 23.3029 16.4505 23.4487C16.3046 23.5946 16.2227 23.7924 16.2227 23.9987C16.2227 24.205 16.3046 24.4028 16.4505 24.5487C16.5963 24.6945 16.7942 24.7765 17.0004 24.7765H22.4449C22.6512 24.7765 22.849 24.6945 22.9949 24.5487C23.1407 24.4028 23.2227 24.205 23.2227 23.9987C23.2227 23.7924 23.1407 23.5946 22.9949 23.4487C22.849 23.3029 22.6512 23.2209 22.4449 23.2209H17.0004ZM16.2227 27.8876C16.2227 27.6813 16.3046 27.4835 16.4505 27.3376C16.5963 27.1918 16.7942 27.1098 17.0004 27.1098H25.556C25.7623 27.1098 25.9601 27.1918 26.106 27.3376C26.2518 27.4835 26.3338 27.6813 26.3338 27.8876C26.3338 28.0939 26.2518 28.2917 26.106 28.4376C25.9601 28.5834 25.7623 28.6654 25.556 28.6654H17.0004C16.7942 28.6654 16.5963 28.5834 16.4505 28.4376C16.3046 28.2917 16.2227 28.0939 16.2227 27.8876Z" fill="#1C1B19"/>
<path d="M15.4444 36.4427C14.413 36.4427 13.4239 36.033 12.6946 35.3037C11.9653 34.5744 11.5556 33.5852 11.5556 32.5538V13.1094H10V32.5538C10 33.9978 10.5736 35.3826 11.5946 36.4036C12.6157 37.4247 14.0005 37.9983 15.4444 37.9983H28.6667V36.4427H15.4444Z" fill="#1C1B19"/>
<path fill-rule="evenodd" clip-rule="evenodd" d="M33.332 15.4427C33.332 14.8239 33.5779 14.2304 34.0154 13.7928C34.453 13.3552 35.0465 13.1094 35.6654 13.1094C36.2842 13.1094 36.8777 13.3552 37.3153 13.7928C37.7529 14.2304 37.9987 14.8239 37.9987 15.4427V31.2339L35.6654 34.7339L33.332 31.2339V15.4427ZM35.6654 14.6649C35.4591 14.6649 35.2613 14.7469 35.1154 14.8927C34.9695 15.0386 34.8876 15.2364 34.8876 15.4427V16.9983H36.4431V15.4427C36.4431 15.2364 36.3612 15.0386 36.2153 14.8927C36.0695 14.7469 35.8716 14.6649 35.6654 14.6649ZM35.6654 31.9293L36.4431 30.7626V18.5538H34.8876V30.7626L35.6654 31.9293Z" fill="#1C1B19"/>
</svg>
