<svg width="24" height="24" viewBox="0 0 24 24" fill="none" xmlns="http://www.w3.org/2000/svg">
<path d="M14.5 11C14.303 11 14.108 10.9612 13.926 10.8858C13.744 10.8104 13.5786 10.6999 13.4393 10.5607C13.3001 10.4214 13.1896 10.256 13.1142 10.074C13.0388 9.89204 13 9.69698 13 9.5C13 9.30302 13.0388 9.10796 13.1142 8.92598C13.1896 8.74399 13.3001 8.57863 13.4393 8.43934C13.5786 8.30005 13.744 8.18956 13.926 8.11418C14.108 8.0388 14.303 8 14.5 8C14.8978 8 15.2794 8.15804 15.5607 8.43934C15.842 8.72065 16 9.10218 16 9.5C16 9.89783 15.842 10.2794 15.5607 10.5607C15.2794 10.842 14.8978 11 14.5 11Z" fill="#767573"/>
<path fill-rule="evenodd" clip-rule="evenodd" d="M20.3931 16.0053V24H8.98447V19.6587H6.1223C5.94363 19.6587 5.77295 19.6233 5.61761 19.56L7.20437 18.3253H10.3179V22.6667H19.0604V15.468L19.4337 15.0807C20.5271 13.944 22.6666 11.2873 22.6666 7.98333C22.6666 6.89667 22.2566 5.23267 21.0225 3.85667C19.9338 2.64267 18.107 1.54667 15.0642 1.36133V6.06133C15.5903 6.16104 16.0876 6.37684 16.5197 6.69303C16.9519 7.00923 17.3081 7.41784 17.5623 7.8891C17.8166 8.36036 17.9625 8.8824 17.9895 9.41719C18.0164 9.95198 17.9237 10.486 17.7181 10.9805C17.5125 11.4749 17.1992 11.9173 16.801 12.2753C16.4029 12.6333 15.9298 12.898 15.4164 13.0501C14.9029 13.2022 14.362 13.2378 13.8331 13.1544C13.3041 13.071 12.8004 12.8707 12.3587 12.568L2.97812 19.85C3.03591 20.1833 2.97935 20.5263 2.8176 20.8234C2.65586 21.1205 2.39844 21.3542 2.08714 21.4866C1.77583 21.619 1.42892 21.6423 1.10271 21.5527C0.776514 21.4631 0.490181 21.2658 0.290197 20.993C0.0902119 20.7202 -0.0116787 20.3878 0.00106621 20.0497C0.0138111 19.7117 0.140442 19.3879 0.360401 19.1309C0.58036 18.8739 0.880735 18.6988 1.21276 18.634C1.54478 18.5692 1.88896 18.6186 2.18941 18.774L11.4126 11.6133C11.079 11.1187 10.8735 10.549 10.8145 9.95538C10.7556 9.36172 10.8451 8.76273 11.0749 8.2122C11.3047 7.66167 11.6677 7.17686 12.1313 6.80132C12.5949 6.42578 13.1445 6.17127 13.7307 6.06067V1.33733C12.0353 1.36867 10.8606 1.596 9.97186 1.92933C9.03047 2.28267 8.33243 2.78267 7.62906 3.434L7.53438 3.522C6.84501 4.16067 6.63967 4.35133 6.52299 4.662L3.70083 12.1753H6.1223V14.1007L4.78889 15.1373V13.5087H3.70083C3.48535 13.509 3.27301 13.457 3.08204 13.3572C2.89106 13.2574 2.72714 13.1128 2.60435 12.9357C2.48156 12.7586 2.40356 12.5544 2.37704 12.3406C2.35052 12.1268 2.37627 11.9097 2.45209 11.708L5.27492 4.19267C5.5076 3.57267 5.95763 3.15933 6.52433 2.63933C6.59048 2.5786 6.65648 2.51772 6.72234 2.45667C8.2991 0.994667 10.0932 0 14.1341 0C21.9959 0 24 5.25 24 7.98333C24 11.828 21.5445 14.8107 20.3931 16.0053ZM14.3974 11.8673C14.0997 11.8674 13.8048 11.8088 13.5297 11.6949C13.2546 11.581 13.0046 11.414 12.794 11.2035C12.5834 10.993 12.4164 10.743 12.3024 10.468C12.1884 10.1929 12.1297 9.89808 12.1296 9.60033C12.1296 9.30258 12.1882 9.00774 12.3021 8.73264C12.416 8.45753 12.583 8.20756 12.7935 7.99699C13.0041 7.78642 13.254 7.61937 13.5291 7.50539C13.8042 7.3914 14.099 7.33271 14.3968 7.33267C14.9981 7.33267 15.5749 7.57155 16.0001 7.99675C16.4254 8.42196 16.6642 8.99867 16.6642 9.6C16.6642 10.2013 16.4254 10.778 16.0001 11.2032C15.5749 11.6285 14.9988 11.8673 14.3974 11.8673Z" fill="#767573"/>
</svg>
