<svg width="185" height="40" viewBox="0 0 185 40" fill="none" xmlns="http://www.w3.org/2000/svg">
<path d="M0.704545 6.875V5.36364H9.71023V6.875H6.07955V17H4.32955V6.875H0.704545ZM13.4197 17.1761C12.5598 17.1761 11.8193 16.9924 11.1981 16.625C10.5806 16.2538 10.1034 15.733 9.76625 15.0625C9.43292 14.3883 9.26625 13.5985 9.26625 12.6932C9.26625 11.7992 9.43292 11.0114 9.76625 10.3295C10.1034 9.64773 10.5731 9.11553 11.1753 8.73295C11.7814 8.35038 12.4897 8.15909 13.3003 8.15909C13.7928 8.15909 14.27 8.24053 14.7322 8.40341C15.1943 8.56629 15.6091 8.82197 15.9765 9.17045C16.3439 9.51894 16.6337 9.97159 16.8458 10.5284C17.0579 11.0814 17.164 11.7538 17.164 12.5455V13.1477H10.2265V11.875H15.4992C15.4992 11.428 15.4083 11.0322 15.2265 10.6875C15.0447 10.339 14.789 10.0644 14.4594 9.86364C14.1337 9.66288 13.7511 9.5625 13.3117 9.5625C12.8344 9.5625 12.4178 9.67992 12.0617 9.91477C11.7094 10.1458 11.4367 10.4489 11.2435 10.8239C11.0541 11.1951 10.9594 11.5985 10.9594 12.0341V13.0284C10.9594 13.6117 11.0617 14.108 11.2662 14.517C11.4746 14.9261 11.7644 15.2386 12.1356 15.4545C12.5068 15.6667 12.9405 15.7727 13.4367 15.7727C13.7587 15.7727 14.0522 15.7273 14.3174 15.6364C14.5825 15.5417 14.8117 15.4015 15.0049 15.2159C15.1981 15.0303 15.3458 14.8011 15.4481 14.5284L17.056 14.8182C16.9272 15.2917 16.6962 15.7064 16.3628 16.0625C16.0333 16.4148 15.6185 16.6894 15.1185 16.8864C14.6223 17.0795 14.056 17.1761 13.4197 17.1761ZM17.7214 17L17.7157 15.5284H18.0282C18.2707 15.5284 18.4733 15.4773 18.6362 15.375C18.8029 15.2689 18.9392 15.0909 19.0453 14.8409C19.1513 14.5909 19.2328 14.2462 19.2896 13.8068C19.3464 13.3636 19.3881 12.8068 19.4146 12.1364L19.568 8.27273H25.6589V17H23.9941V9.73864H21.1419L21.0055 12.7045C20.9714 13.4242 20.8976 14.053 20.7839 14.5909C20.6741 15.1288 20.5131 15.5777 20.301 15.9375C20.0888 16.2936 19.8161 16.5606 19.4828 16.7386C19.1495 16.9129 18.7441 17 18.2669 17H17.7214ZM31.0459 17.1761C30.1861 17.1761 29.4455 16.9924 28.8243 16.625C28.2069 16.2538 27.7296 15.733 27.3925 15.0625C27.0592 14.3883 26.8925 13.5985 26.8925 12.6932C26.8925 11.7992 27.0592 11.0114 27.3925 10.3295C27.7296 9.64773 28.1993 9.11553 28.8016 8.73295C29.4077 8.35038 30.116 8.15909 30.9266 8.15909C31.419 8.15909 31.8963 8.24053 32.3584 8.40341C32.8205 8.56629 33.2353 8.82197 33.6027 9.17045C33.9702 9.51894 34.2599 9.97159 34.472 10.5284C34.6842 11.0814 34.7902 11.7538 34.7902 12.5455V13.1477H27.8527V11.875H33.1255C33.1255 11.428 33.0345 11.0322 32.8527 10.6875C32.6709 10.339 32.4152 10.0644 32.0857 9.86364C31.7599 9.66288 31.3773 9.5625 30.938 9.5625C30.4607 9.5625 30.044 9.67992 29.688 9.91477C29.3357 10.1458 29.063 10.4489 28.8698 10.8239C28.6804 11.1951 28.5857 11.5985 28.5857 12.0341V13.0284C28.5857 13.6117 28.688 14.108 28.8925 14.517C29.1008 14.9261 29.3906 15.2386 29.7618 15.4545C30.133 15.6667 30.5667 15.7727 31.063 15.7727C31.3849 15.7727 31.6785 15.7273 31.9436 15.6364C32.2088 15.5417 32.438 15.4015 32.6311 15.2159C32.8243 15.0303 32.972 14.8011 33.0743 14.5284L34.6823 14.8182C34.5535 15.2917 34.3224 15.7064 33.9891 16.0625C33.6595 16.4148 33.2448 16.6894 32.7448 16.8864C32.2486 17.0795 31.6823 17.1761 31.0459 17.1761ZM40.9329 14.8977L43.7511 8.27273H45.217L41.5636 17H40.3022L36.7227 8.27273H38.1715L40.9329 14.8977ZM37.6999 8.27273V17H36.0352V8.27273H37.6999ZM44.2113 17V8.27273H45.8647V17H44.2113ZM51.2503 17.1761C50.3904 17.1761 49.6499 16.9924 49.0287 16.625C48.4113 16.2538 47.934 15.733 47.5969 15.0625C47.2635 14.3883 47.0969 13.5985 47.0969 12.6932C47.0969 11.7992 47.2635 11.0114 47.5969 10.3295C47.934 9.64773 48.4037 9.11553 49.006 8.73295C49.612 8.35038 50.3204 8.15909 51.131 8.15909C51.6234 8.15909 52.1007 8.24053 52.5628 8.40341C53.0249 8.56629 53.4397 8.82197 53.8071 9.17045C54.1745 9.51894 54.4643 9.97159 54.6764 10.5284C54.8885 11.0814 54.9946 11.7538 54.9946 12.5455V13.1477H48.0571V11.875H53.3298C53.3298 11.428 53.2389 11.0322 53.0571 10.6875C52.8753 10.339 52.6196 10.0644 52.2901 9.86364C51.9643 9.66288 51.5817 9.5625 51.1423 9.5625C50.6651 9.5625 50.2484 9.67992 49.8923 9.91477C49.5401 10.1458 49.2673 10.4489 49.0741 10.8239C48.8848 11.1951 48.7901 11.5985 48.7901 12.0341V13.0284C48.7901 13.6117 48.8923 14.108 49.0969 14.517C49.3052 14.9261 49.595 15.2386 49.9662 15.4545C50.3374 15.6667 50.7711 15.7727 51.2673 15.7727C51.5893 15.7727 51.8829 15.7273 52.148 15.6364C52.4132 15.5417 52.6423 15.4015 52.8355 15.2159C53.0287 15.0303 53.1764 14.8011 53.2787 14.5284L54.8866 14.8182C54.7579 15.2917 54.5268 15.7064 54.1935 16.0625C53.8639 16.4148 53.4491 16.6894 52.9491 16.8864C52.4529 17.0795 51.8866 17.1761 51.2503 17.1761ZM55.3873 19.517V15.5284H56.0975C56.2793 15.3617 56.4327 15.1629 56.5577 14.9318C56.6865 14.7008 56.7945 14.4261 56.8816 14.108C56.9725 13.7898 57.0483 13.4186 57.1089 12.9943C57.1695 12.5663 57.2225 12.0777 57.268 11.5284L57.5407 8.27273H63.4725V15.5284H64.8134V19.517H63.1543V17H57.0691V19.517H55.3873ZM57.9157 15.5284H61.8134V9.72727H59.0634L58.8816 11.5284C58.7945 12.4451 58.6846 13.2405 58.552 13.9148C58.4195 14.5852 58.2073 15.1231 57.9157 15.5284ZM67.4987 14.6193L71.3453 8.27273H73.1748V17H71.5101V10.6477L67.6805 17H65.8339V8.27273H67.4987V14.6193ZM81.9382 8.27273V15.608H83.2166V19.8125H81.5405V17H74.8189V8.27273H76.4837V15.5341H80.2791V8.27273H81.9382ZM86.1249 14.6193L89.9715 8.27273H91.8011V17H90.1363V10.6477L86.3068 17H84.4602V8.27273H86.1249V14.6193ZM99.3599 11.9034V13.375H94.6327V11.9034H99.3599ZM95.1099 8.27273V17H93.4452V8.27273H95.1099ZM100.547 8.27273V17H98.8884V8.27273H100.547ZM104.72 17.1932C104.167 17.1932 103.667 17.0909 103.22 16.8864C102.773 16.678 102.419 16.3769 102.157 15.983C101.9 15.589 101.771 15.1061 101.771 14.5341C101.771 14.0417 101.866 13.6364 102.055 13.3182C102.245 13 102.5 12.7481 102.822 12.5625C103.144 12.3769 103.504 12.2367 103.902 12.142C104.299 12.0473 104.705 11.9754 105.118 11.9261C105.64 11.8655 106.065 11.8163 106.39 11.7784C106.716 11.7367 106.953 11.6705 107.101 11.5795C107.248 11.4886 107.322 11.3409 107.322 11.1364V11.0966C107.322 10.6004 107.182 10.2159 106.902 9.94318C106.625 9.67045 106.212 9.53409 105.663 9.53409C105.091 9.53409 104.64 9.66098 104.311 9.91477C103.985 10.1648 103.76 10.4432 103.635 10.75L102.038 10.3864C102.228 9.85606 102.504 9.42803 102.868 9.10227C103.235 8.77273 103.657 8.53409 104.135 8.38636C104.612 8.23485 105.114 8.15909 105.64 8.15909C105.989 8.15909 106.358 8.20076 106.748 8.28409C107.142 8.36364 107.51 8.51136 107.851 8.72727C108.195 8.94318 108.478 9.25189 108.697 9.65341C108.917 10.0511 109.027 10.5682 109.027 11.2045V17H107.368V15.8068H107.299C107.19 16.0265 107.025 16.2424 106.805 16.4545C106.585 16.6667 106.303 16.8428 105.959 16.983C105.614 17.1231 105.201 17.1932 104.72 17.1932ZM105.089 15.8295C105.559 15.8295 105.96 15.7367 106.294 15.5511C106.631 15.3655 106.887 15.1231 107.061 14.8239C107.239 14.5208 107.328 14.197 107.328 13.8523V12.7273C107.267 12.7879 107.15 12.8447 106.976 12.8977C106.805 12.947 106.61 12.9905 106.39 13.0284C106.171 13.0625 105.957 13.0947 105.748 13.125C105.54 13.1515 105.366 13.1742 105.226 13.1932C104.896 13.2348 104.595 13.3049 104.322 13.4034C104.053 13.5019 103.837 13.6439 103.674 13.8295C103.515 14.0114 103.436 14.2538 103.436 14.5568C103.436 14.9773 103.591 15.2955 103.902 15.5114C104.212 15.7235 104.608 15.8295 105.089 15.8295Z" fill="#1C1B19"/>
<path d="M1.51705 37.1193V36.1307H2.0625C2.27273 36.1307 2.44886 36.0895 2.59091 36.0071C2.7358 35.9247 2.85511 35.8182 2.94886 35.6875C3.04545 35.5568 3.125 35.4205 3.1875 35.2784L3.32386 34.9545L0.306818 28.2727H1.44886L3.85227 33.6932L6.05114 28.2727H7.17614L4.15909 35.5852C4.03977 35.858 3.90341 36.1108 3.75 36.3438C3.59943 36.5767 3.39347 36.7642 3.1321 36.9062C2.87358 37.0483 2.52273 37.1193 2.07955 37.1193H1.51705ZM15.2044 33.267V34.2045H11.5908V33.267H15.2044ZM11.8294 30.4545V37H10.8237V30.4545H11.8294ZM15.9715 30.4545V37H14.9658V30.4545H15.9715ZM19.2542 37.1534C18.8395 37.1534 18.4631 37.0753 18.125 36.919C17.7869 36.7599 17.5185 36.5312 17.3196 36.233C17.1207 35.9318 17.0213 35.5682 17.0213 35.142C17.0213 34.767 17.0952 34.4631 17.2429 34.2301C17.3906 33.9943 17.5881 33.8097 17.8352 33.6761C18.0824 33.5426 18.3551 33.4432 18.6534 33.3778C18.9545 33.3097 19.2571 33.2557 19.5611 33.2159C19.9588 33.1648 20.2812 33.1264 20.5284 33.1009C20.7784 33.0724 20.9602 33.0256 21.0738 32.9602C21.1903 32.8949 21.2486 32.7812 21.2486 32.6193V32.5852C21.2486 32.1648 21.1335 31.8381 20.9034 31.6051C20.6761 31.3722 20.331 31.2557 19.8679 31.2557C19.3878 31.2557 19.0113 31.3608 18.7386 31.571C18.4659 31.7812 18.2741 32.0057 18.1633 32.2443L17.2088 31.9034C17.3792 31.5057 17.6065 31.196 17.8906 30.9744C18.1775 30.75 18.49 30.5937 18.8281 30.5057C19.169 30.4148 19.5042 30.3693 19.8338 30.3693C20.044 30.3693 20.2855 30.3949 20.5582 30.446C20.8338 30.4943 21.0994 30.5952 21.3551 30.7486C21.6136 30.902 21.8281 31.1335 21.9986 31.4432C22.169 31.7528 22.2542 32.1676 22.2542 32.6875V37H21.2486V36.1136H21.1974C21.1292 36.2557 21.0156 36.4077 20.8565 36.5696C20.6974 36.7315 20.4858 36.8693 20.2216 36.983C19.9574 37.0966 19.6349 37.1534 19.2542 37.1534ZM19.4077 36.25C19.8054 36.25 20.1406 36.1719 20.4133 36.0156C20.6889 35.8594 20.8963 35.6577 21.0355 35.4105C21.1775 35.1634 21.2486 34.9034 21.2486 34.6307V33.7102C21.206 33.7614 21.1122 33.8082 20.9673 33.8509C20.8253 33.8906 20.6605 33.9261 20.473 33.9574C20.2883 33.9858 20.1079 34.0114 19.9318 34.0341C19.7585 34.054 19.6179 34.071 19.5099 34.0852C19.2486 34.1193 19.0042 34.1747 18.777 34.2514C18.5525 34.3253 18.3707 34.4375 18.2315 34.5881C18.0952 34.7358 18.027 34.9375 18.027 35.1932C18.027 35.5426 18.1562 35.8068 18.4148 35.9858C18.6761 36.1619 19.0071 36.25 19.4077 36.25ZM26.2689 37.1364C25.6553 37.1364 25.1269 36.9915 24.6837 36.7017C24.2405 36.4119 23.8996 36.0128 23.661 35.5043C23.4223 34.9957 23.303 34.4148 23.303 33.7614C23.303 33.0966 23.4252 32.5099 23.6695 32.0014C23.9166 31.4901 24.2604 31.0909 24.7007 30.804C25.1439 30.5142 25.661 30.3693 26.2519 30.3693C26.7121 30.3693 27.1269 30.4545 27.4962 30.625C27.8655 30.7955 28.1681 31.0341 28.4039 31.3409C28.6397 31.6477 28.786 32.0057 28.8428 32.4148H27.8371C27.7604 32.1165 27.5899 31.8523 27.3257 31.6222C27.0644 31.3892 26.7121 31.2727 26.2689 31.2727C25.8769 31.2727 25.5331 31.375 25.2377 31.5795C24.9451 31.7812 24.7164 32.0668 24.5516 32.4361C24.3897 32.8026 24.3087 33.233 24.3087 33.7273C24.3087 34.233 24.3882 34.6733 24.5473 35.0483C24.7093 35.4233 24.9365 35.7145 25.2291 35.9219C25.5246 36.1293 25.8712 36.233 26.2689 36.233C26.5303 36.233 26.7675 36.1875 26.9806 36.0966C27.1936 36.0057 27.374 35.875 27.5218 35.7045C27.6695 35.5341 27.7746 35.3295 27.8371 35.0909H28.8428C28.786 35.4773 28.6453 35.8253 28.4209 36.1349C28.1993 36.4418 27.9053 36.6861 27.5388 36.8679C27.1752 37.0469 26.7519 37.1364 26.2689 37.1364ZM32.0291 38.875V36.0625H32.5745C32.7081 35.9233 32.8231 35.7727 32.9197 35.6108C33.0163 35.4489 33.1001 35.2571 33.1711 35.0355C33.245 34.8111 33.3075 34.5384 33.3586 34.2173C33.4098 33.8935 33.4552 33.5028 33.495 33.0455L33.7166 30.4545H37.8757V36.0625H38.8814V38.875H37.8757V37H33.0348V38.875H32.0291ZM33.7166 36.0625H36.87V31.392H34.6541L34.4836 33.0455C34.4126 33.7301 34.3245 34.3281 34.2194 34.8395C34.1143 35.3509 33.9467 35.7585 33.7166 36.0625ZM42.3953 37.1364C41.8044 37.1364 41.286 36.9957 40.8399 36.7145C40.3967 36.4332 40.0502 36.0398 39.8002 35.5341C39.553 35.0284 39.4294 34.4375 39.4294 33.7614C39.4294 33.0795 39.553 32.4844 39.8002 31.9759C40.0502 31.4673 40.3967 31.0724 40.8399 30.7912C41.286 30.5099 41.8044 30.3693 42.3953 30.3693C42.9862 30.3693 43.5033 30.5099 43.9465 30.7912C44.3925 31.0724 44.7391 31.4673 44.9862 31.9759C45.2362 32.4844 45.3612 33.0795 45.3612 33.7614C45.3612 34.4375 45.2362 35.0284 44.9862 35.5341C44.7391 36.0398 44.3925 36.4332 43.9465 36.7145C43.5033 36.9957 42.9862 37.1364 42.3953 37.1364ZM42.3953 36.233C42.8442 36.233 43.2135 36.1179 43.5033 35.8878C43.7931 35.6577 44.0075 35.3551 44.1467 34.9801C44.286 34.6051 44.3556 34.1989 44.3556 33.7614C44.3556 33.3239 44.286 32.9162 44.1467 32.5384C44.0075 32.1605 43.7931 31.8551 43.5033 31.6222C43.2135 31.3892 42.8442 31.2727 42.3953 31.2727C41.9465 31.2727 41.5771 31.3892 41.2874 31.6222C40.9976 31.8551 40.7831 32.1605 40.6439 32.5384C40.5047 32.9162 40.4351 33.3239 40.4351 33.7614C40.4351 34.1989 40.5047 34.6051 40.6439 34.9801C40.7831 35.3551 40.9976 35.6577 41.2874 35.8878C41.5771 36.1179 41.9465 36.233 42.3953 36.233ZM49.0755 37.1364C48.4618 37.1364 47.9334 36.9915 47.4903 36.7017C47.0471 36.4119 46.7062 36.0128 46.4675 35.5043C46.2289 34.9957 46.1096 34.4148 46.1096 33.7614C46.1096 33.0966 46.2317 32.5099 46.4761 32.0014C46.7232 31.4901 47.067 31.0909 47.5073 30.804C47.9505 30.5142 48.4675 30.3693 49.0584 30.3693C49.5187 30.3693 49.9334 30.4545 50.3028 30.625C50.6721 30.7955 50.9746 31.0341 51.2104 31.3409C51.4462 31.6477 51.5925 32.0057 51.6493 32.4148H50.6437C50.567 32.1165 50.3965 31.8523 50.1323 31.6222C49.8709 31.3892 49.5187 31.2727 49.0755 31.2727C48.6834 31.2727 48.3397 31.375 48.0442 31.5795C47.7516 31.7812 47.5229 32.0668 47.3582 32.4361C47.1962 32.8026 47.1153 33.233 47.1153 33.7273C47.1153 34.233 47.1948 34.6733 47.3539 35.0483C47.5158 35.4233 47.7431 35.7145 48.0357 35.9219C48.3312 36.1293 48.6778 36.233 49.0755 36.233C49.3368 36.233 49.5741 36.1875 49.7871 36.0966C50.0002 36.0057 50.1806 35.875 50.3283 35.7045C50.4761 35.5341 50.5812 35.3295 50.6437 35.0909H51.6493C51.5925 35.4773 51.4519 35.8253 51.2275 36.1349C51.0059 36.4418 50.7118 36.6861 50.3454 36.8679C49.9817 37.0469 49.5584 37.1364 49.0755 37.1364ZM52.1239 31.392V30.4545H57.4421V31.392H55.2943V37H54.2887V31.392H52.1239ZM59.0768 39.4545C58.9063 39.4545 58.7543 39.4403 58.6208 39.4119C58.4873 39.3864 58.395 39.3608 58.3438 39.3352L58.5995 38.4489C58.8438 38.5114 59.0597 38.5341 59.2472 38.517C59.4347 38.5 59.6009 38.4162 59.7458 38.2656C59.8935 38.1179 60.0285 37.8778 60.1506 37.5455L60.3381 37.0341L57.9177 30.4545H59.0086L60.8154 35.6705H60.8836L62.6904 30.4545H63.7813L61.0029 37.9545C60.8779 38.2926 60.7231 38.5724 60.5384 38.794C60.3538 39.0185 60.1393 39.1847 59.895 39.2926C59.6535 39.4006 59.3808 39.4545 59.0768 39.4545ZM64.6287 37V30.4545H69.7765V37H68.7708V31.392H65.6344V37H64.6287ZM75.5138 33.267V34.2045H71.9002V33.267H75.5138ZM72.1388 30.4545V37H71.1331V30.4545H72.1388ZM76.2808 30.4545V37H75.2752V30.4545H76.2808ZM78.5068 32.8239H80.3818C81.1489 32.8239 81.7355 33.0185 82.1417 33.4077C82.548 33.7969 82.7511 34.2898 82.7511 34.8864C82.7511 35.2784 82.6602 35.6349 82.4784 35.956C82.2966 36.2741 82.0295 36.5284 81.6773 36.7188C81.325 36.9062 80.8932 37 80.3818 37H77.6375V30.4545H78.6432V36.0625H80.3818C80.7795 36.0625 81.1062 35.9574 81.3619 35.7472C81.6176 35.5369 81.7454 35.267 81.7454 34.9375C81.7454 34.5909 81.6176 34.3082 81.3619 34.0895C81.1062 33.8707 80.7795 33.7614 80.3818 33.7614H78.5068V32.8239ZM83.7909 37V30.4545H84.7966V37H83.7909ZM91.7116 37.1364C91.1207 37.1364 90.6022 36.9957 90.1562 36.7145C89.713 36.4332 89.3664 36.0398 89.1164 35.5341C88.8693 35.0284 88.7457 34.4375 88.7457 33.7614C88.7457 33.0795 88.8693 32.4844 89.1164 31.9759C89.3664 31.4673 89.713 31.0724 90.1562 30.7912C90.6022 30.5099 91.1207 30.3693 91.7116 30.3693C92.3025 30.3693 92.8195 30.5099 93.2627 30.7912C93.7087 31.0724 94.0553 31.4673 94.3025 31.9759C94.5525 32.4844 94.6775 33.0795 94.6775 33.7614C94.6775 34.4375 94.5525 35.0284 94.3025 35.5341C94.0553 36.0398 93.7087 36.4332 93.2627 36.7145C92.8195 36.9957 92.3025 37.1364 91.7116 37.1364ZM91.7116 36.233C92.1604 36.233 92.5298 36.1179 92.8195 35.8878C93.1093 35.6577 93.3238 35.3551 93.463 34.9801C93.6022 34.6051 93.6718 34.1989 93.6718 33.7614C93.6718 33.3239 93.6022 32.9162 93.463 32.5384C93.3238 32.1605 93.1093 31.8551 92.8195 31.6222C92.5298 31.3892 92.1604 31.2727 91.7116 31.2727C91.2627 31.2727 90.8934 31.3892 90.6036 31.6222C90.3139 31.8551 90.0994 32.1605 89.9602 32.5384C89.821 32.9162 89.7514 33.3239 89.7514 33.7614C89.7514 34.1989 89.821 34.6051 89.9602 34.9801C90.0994 35.3551 90.3139 35.6577 90.6036 35.8878C90.8934 36.1179 91.2627 36.233 91.7116 36.233ZM100.113 33.267V34.2045H96.4997V33.267H100.113ZM96.7383 30.4545V37H95.7326V30.4545H96.7383ZM100.88 30.4545V37H99.8747V30.4545H100.88ZM101.657 37V36.0625H101.896C102.092 36.0625 102.255 36.0241 102.386 35.9474C102.517 35.8679 102.622 35.7301 102.702 35.5341C102.784 35.3352 102.846 35.0597 102.889 34.7074C102.934 34.3523 102.967 33.9006 102.987 33.3523L103.106 30.4545H107.47V37H106.464V31.392H104.061L103.959 33.7273C103.936 34.2642 103.888 34.7372 103.814 35.1463C103.743 35.5526 103.633 35.8935 103.486 36.169C103.341 36.4446 103.148 36.652 102.906 36.7912C102.665 36.9304 102.362 37 101.998 37H101.657ZM110.761 37.1534C110.347 37.1534 109.97 37.0753 109.632 36.919C109.294 36.7599 109.025 36.5312 108.827 36.233C108.628 35.9318 108.528 35.5682 108.528 35.142C108.528 34.767 108.602 34.4631 108.75 34.2301C108.898 33.9943 109.095 33.8097 109.342 33.6761C109.589 33.5426 109.862 33.4432 110.16 33.3778C110.462 33.3097 110.764 33.2557 111.068 33.2159C111.466 33.1648 111.788 33.1264 112.035 33.1009C112.285 33.0724 112.467 33.0256 112.581 32.9602C112.697 32.8949 112.756 32.7812 112.756 32.6193V32.5852C112.756 32.1648 112.641 31.8381 112.41 31.6051C112.183 31.3722 111.838 31.2557 111.375 31.2557C110.895 31.2557 110.518 31.3608 110.246 31.571C109.973 31.7812 109.781 32.0057 109.67 32.2443L108.716 31.9034C108.886 31.5057 109.114 31.196 109.398 30.9744C109.685 30.75 109.997 30.5937 110.335 30.5057C110.676 30.4148 111.011 30.3693 111.341 30.3693C111.551 30.3693 111.793 30.3949 112.065 30.446C112.341 30.4943 112.606 30.5952 112.862 30.7486C113.121 30.902 113.335 31.1335 113.506 31.4432C113.676 31.7528 113.761 32.1676 113.761 32.6875V37H112.756V36.1136H112.704C112.636 36.2557 112.523 36.4077 112.364 36.5696C112.204 36.7315 111.993 36.8693 111.729 36.983C111.464 37.0966 111.142 37.1534 110.761 37.1534ZM110.915 36.25C111.312 36.25 111.648 36.1719 111.92 36.0156C112.196 35.8594 112.403 35.6577 112.543 35.4105C112.685 35.1634 112.756 34.9034 112.756 34.6307V33.7102C112.713 33.7614 112.619 33.8082 112.474 33.8509C112.332 33.8906 112.168 33.9261 111.98 33.9574C111.795 33.9858 111.615 34.0114 111.439 34.0341C111.266 34.054 111.125 34.071 111.017 34.0852C110.756 34.1193 110.511 34.1747 110.284 34.2514C110.06 34.3253 109.878 34.4375 109.739 34.5881C109.602 34.7358 109.534 34.9375 109.534 35.1932C109.534 35.5426 109.663 35.8068 109.922 35.9858C110.183 36.1619 110.514 36.25 110.915 36.25ZM116.123 35.517L119.276 30.4545H120.435V37H119.429V31.9375L116.293 37H115.117V30.4545H116.123V35.517ZM118.611 28.2727H119.549C119.549 28.733 119.39 29.1094 119.071 29.402C118.753 29.6946 118.321 29.8409 117.776 29.8409C117.239 29.8409 116.811 29.6946 116.493 29.402C116.178 29.1094 116.02 28.733 116.02 28.2727H116.958C116.958 28.4943 117.019 28.6889 117.141 28.8565C117.266 29.0241 117.478 29.108 117.776 29.108C118.074 29.108 118.287 29.0241 118.415 28.8565C118.546 28.6889 118.611 28.4943 118.611 28.2727ZM126.178 33.267V34.2045H122.564V33.267H126.178ZM122.803 30.4545V37H121.797V30.4545H122.803ZM126.945 30.4545V37H125.939V30.4545H126.945ZM131.196 37V30.4545H136.344V37H135.338V31.392H132.202V37H131.196ZM137.701 39.4545V30.4545H138.672V31.4943H138.792C138.866 31.3807 138.968 31.2358 139.099 31.0597C139.232 30.8807 139.422 30.7216 139.67 30.5824C139.92 30.4403 140.258 30.3693 140.684 30.3693C141.235 30.3693 141.721 30.5071 142.141 30.7827C142.562 31.0582 142.89 31.4489 143.125 31.9545C143.361 32.4602 143.479 33.0568 143.479 33.7443C143.479 34.4375 143.361 35.0384 143.125 35.5469C142.89 36.0526 142.563 36.4446 142.145 36.723C141.728 36.9986 141.246 37.1364 140.701 37.1364C140.28 37.1364 139.944 37.0668 139.691 36.9276C139.438 36.7855 139.243 36.625 139.107 36.446C138.971 36.2642 138.866 36.1136 138.792 35.9943H138.706V39.4545H137.701ZM138.689 33.7273C138.689 34.2216 138.762 34.6577 138.907 35.0355C139.052 35.4105 139.263 35.7045 139.542 35.9176C139.82 36.1278 140.161 36.233 140.564 36.233C140.985 36.233 141.336 36.1222 141.617 35.9006C141.901 35.6761 142.114 35.375 142.256 34.9972C142.401 34.6165 142.474 34.1932 142.474 33.7273C142.474 33.267 142.402 32.8523 142.26 32.483C142.121 32.1108 141.91 31.8168 141.625 31.6009C141.344 31.3821 140.991 31.2727 140.564 31.2727C140.155 31.2727 139.812 31.3764 139.533 31.5838C139.255 31.7884 139.045 32.0753 138.902 32.4446C138.76 32.8111 138.689 33.2386 138.689 33.7273ZM145.539 35.517L148.692 30.4545H149.851V37H148.846V31.9375L145.709 37H144.533V30.4545H145.539V35.517ZM153.958 37.1364C153.327 37.1364 152.783 36.9972 152.326 36.7188C151.871 36.4375 151.52 36.0455 151.273 35.5426C151.029 35.0369 150.907 34.4489 150.907 33.7784C150.907 33.108 151.029 32.517 151.273 32.0057C151.52 31.4915 151.864 31.0909 152.304 30.804C152.748 30.5142 153.265 30.3693 153.855 30.3693C154.196 30.3693 154.533 30.4261 154.865 30.5398C155.198 30.6534 155.5 30.8381 155.773 31.0938C156.046 31.3466 156.263 31.6818 156.425 32.0994C156.587 32.517 156.668 33.0312 156.668 33.642V34.0682H151.623V33.1989H155.645C155.645 32.8295 155.571 32.5 155.424 32.2102C155.279 31.9205 155.071 31.6918 154.801 31.5241C154.534 31.3565 154.219 31.2727 153.855 31.2727C153.455 31.2727 153.108 31.3722 152.816 31.571C152.526 31.767 152.303 32.0227 152.147 32.3381C151.99 32.6534 151.912 32.9915 151.912 33.3523V33.9318C151.912 34.4261 151.998 34.8452 152.168 35.1889C152.341 35.5298 152.581 35.7898 152.888 35.9688C153.195 36.1449 153.551 36.233 153.958 36.233C154.222 36.233 154.461 36.196 154.674 36.1222C154.89 36.0455 155.076 35.9318 155.232 35.7812C155.388 35.6278 155.509 35.4375 155.594 35.2102L156.566 35.483C156.463 35.8125 156.292 36.1023 156.05 36.3523C155.809 36.5994 155.51 36.7926 155.155 36.9318C154.8 37.0682 154.401 37.1364 153.958 37.1364ZM152.577 29.3636C152.398 29.3636 152.239 29.2955 152.1 29.1591C151.963 29.0199 151.895 28.8608 151.895 28.6818C151.895 28.4858 151.963 28.3239 152.1 28.196C152.239 28.0653 152.398 28 152.577 28C152.773 28 152.935 28.0653 153.063 28.196C153.194 28.3239 153.259 28.4858 153.259 28.6818C153.259 28.8608 153.194 29.0199 153.063 29.1591C152.935 29.2955 152.773 29.3636 152.577 29.3636ZM155.032 29.3636C154.853 29.3636 154.694 29.2955 154.554 29.1591C154.418 29.0199 154.35 28.8608 154.35 28.6818C154.35 28.4858 154.418 28.3239 154.554 28.196C154.694 28.0653 154.853 28 155.032 28C155.228 28 155.39 28.0653 155.517 28.196C155.648 28.3239 155.713 28.4858 155.713 28.6818C155.713 28.8608 155.648 29.0199 155.517 29.1591C155.39 29.2955 155.228 29.3636 155.032 29.3636ZM161.297 35.6364L163.581 30.4545H164.536L161.706 37H160.888L158.11 30.4545H159.047L161.297 35.6364ZM158.723 30.4545V37H157.718V30.4545H158.723ZM163.871 37V30.4545H164.877V37H163.871ZM167.107 32.8239H168.982C169.749 32.8239 170.336 33.0185 170.742 33.4077C171.148 33.7969 171.351 34.2898 171.351 34.8864C171.351 35.2784 171.261 35.6349 171.079 35.956C170.897 36.2741 170.63 36.5284 170.278 36.7188C169.925 36.9062 169.493 37 168.982 37H166.238V30.4545H167.243V36.0625H168.982C169.38 36.0625 169.707 35.9574 169.962 35.7472C170.218 35.5369 170.346 35.267 170.346 34.9375C170.346 34.5909 170.218 34.3082 169.962 34.0895C169.707 33.8707 169.38 33.7614 168.982 33.7614H167.107V32.8239ZM172.391 37V30.4545H173.397V37H172.391Z" fill="#90908E"/>
<rect x="117" width="61" height="22" rx="11" fill="#DD2006"/>
<path d="M129.959 15V6.27273H131.276V10.0653H135.626V6.27273H136.947V15H135.626V11.1946H131.276V15H129.959ZM141.04 15.1321C140.426 15.1321 139.891 14.9915 139.433 14.7102C138.976 14.429 138.621 14.0355 138.368 13.5298C138.115 13.0241 137.989 12.4332 137.989 11.7571C137.989 11.0781 138.115 10.4844 138.368 9.97585C138.621 9.46733 138.976 9.07244 139.433 8.79119C139.891 8.50994 140.426 8.36932 141.04 8.36932C141.654 8.36932 142.189 8.50994 142.646 8.79119C143.104 9.07244 143.459 9.46733 143.712 9.97585C143.965 10.4844 144.091 11.0781 144.091 11.7571C144.091 12.4332 143.965 13.0241 143.712 13.5298C143.459 14.0355 143.104 14.429 142.646 14.7102C142.189 14.9915 141.654 15.1321 141.04 15.1321ZM141.044 14.0625C141.442 14.0625 141.771 13.9574 142.033 13.7472C142.294 13.5369 142.487 13.2571 142.612 12.9077C142.74 12.5582 142.804 12.1733 142.804 11.7528C142.804 11.3352 142.74 10.9517 142.612 10.6023C142.487 10.25 142.294 9.96733 142.033 9.75426C141.771 9.54119 141.442 9.43466 141.044 9.43466C140.644 9.43466 140.311 9.54119 140.047 9.75426C139.786 9.96733 139.591 10.25 139.463 10.6023C139.338 10.9517 139.276 11.3352 139.276 11.7528C139.276 12.1733 139.338 12.5582 139.463 12.9077C139.591 13.2571 139.786 13.5369 140.047 13.7472C140.311 13.9574 140.644 14.0625 141.044 14.0625ZM145.033 15V8.45455H147.748C148.486 8.45455 149.072 8.61222 149.503 8.92756C149.935 9.24006 150.151 9.66477 150.151 10.2017C150.151 10.5852 150.029 10.8892 149.785 11.1136C149.54 11.3381 149.216 11.4886 148.813 11.5653C149.106 11.5994 149.374 11.6875 149.618 11.8295C149.863 11.9687 150.059 12.1562 150.207 12.392C150.357 12.6278 150.432 12.9091 150.432 13.2358C150.432 13.5824 150.343 13.8892 150.164 14.1562C149.985 14.4205 149.725 14.6278 149.384 14.7784C149.046 14.9261 148.638 15 148.161 15H145.033ZM146.231 13.9347H148.161C148.476 13.9347 148.724 13.8594 148.903 13.7088C149.082 13.5582 149.171 13.3537 149.171 13.0952C149.171 12.7912 149.082 12.5526 148.903 12.3793C148.724 12.2031 148.476 12.1151 148.161 12.1151H146.231V13.9347ZM146.231 11.1818H147.761C147.999 11.1818 148.204 11.1477 148.374 11.0795C148.547 11.0114 148.68 10.9148 148.77 10.7898C148.864 10.6619 148.911 10.5114 148.911 10.3381C148.911 10.0852 148.807 9.88778 148.6 9.74574C148.393 9.60369 148.109 9.53267 147.748 9.53267H146.231V11.1818ZM154.107 15.1321C153.494 15.1321 152.958 14.9915 152.501 14.7102C152.043 14.429 151.688 14.0355 151.435 13.5298C151.183 13.0241 151.056 12.4332 151.056 11.7571C151.056 11.0781 151.183 10.4844 151.435 9.97585C151.688 9.46733 152.043 9.07244 152.501 8.79119C152.958 8.50994 153.494 8.36932 154.107 8.36932C154.721 8.36932 155.256 8.50994 155.714 8.79119C156.171 9.07244 156.526 9.46733 156.779 9.97585C157.032 10.4844 157.158 11.0781 157.158 11.7571C157.158 12.4332 157.032 13.0241 156.779 13.5298C156.526 14.0355 156.171 14.429 155.714 14.7102C155.256 14.9915 154.721 15.1321 154.107 15.1321ZM154.111 14.0625C154.509 14.0625 154.839 13.9574 155.1 13.7472C155.361 13.5369 155.555 13.2571 155.68 12.9077C155.808 12.5582 155.871 12.1733 155.871 11.7528C155.871 11.3352 155.808 10.9517 155.68 10.6023C155.555 10.25 155.361 9.96733 155.1 9.75426C154.839 9.54119 154.509 9.43466 154.111 9.43466C153.711 9.43466 153.379 9.54119 153.114 9.75426C152.853 9.96733 152.658 10.25 152.531 10.6023C152.406 10.9517 152.343 11.3352 152.343 11.7528C152.343 12.1733 152.406 12.5582 152.531 12.9077C152.658 13.2571 152.853 13.5369 153.114 13.7472C153.379 13.9574 153.711 14.0625 154.111 14.0625ZM160.922 15.1321C160.277 15.1321 159.721 14.9943 159.255 14.7188C158.792 14.4403 158.434 14.0497 158.182 13.5469C157.932 13.0412 157.807 12.4489 157.807 11.7699C157.807 11.0994 157.932 10.5085 158.182 9.99716C158.434 9.4858 158.787 9.08665 159.238 8.79972C159.693 8.51278 160.224 8.36932 160.832 8.36932C161.201 8.36932 161.559 8.4304 161.906 8.55256C162.253 8.67472 162.564 8.86648 162.839 9.12784C163.115 9.3892 163.332 9.72869 163.491 10.1463C163.65 10.5611 163.73 11.0653 163.73 11.6591V12.1108H158.527V11.1562H162.481C162.481 10.821 162.413 10.5241 162.277 10.2656C162.14 10.0043 161.949 9.7983 161.701 9.64773C161.457 9.49716 161.17 9.42188 160.841 9.42188C160.483 9.42188 160.17 9.50994 159.903 9.68608C159.639 9.85937 159.434 10.0866 159.29 10.3679C159.147 10.6463 159.076 10.9489 159.076 11.2756V12.0213C159.076 12.4588 159.153 12.831 159.307 13.1378C159.463 13.4446 159.68 13.679 159.959 13.8409C160.237 14 160.562 14.0795 160.934 14.0795C161.176 14.0795 161.396 14.0455 161.595 13.9773C161.794 13.9062 161.966 13.8011 162.111 13.6619C162.255 13.5227 162.366 13.3509 162.443 13.1463L163.649 13.3636C163.552 13.7187 163.379 14.0298 163.129 14.2969C162.882 14.5611 162.571 14.767 162.196 14.9148C161.824 15.0597 161.399 15.1321 160.922 15.1321Z" fill="#FCFCFA"/>
</svg>
