<svg width="42" height="30" viewBox="0 0 42 30" fill="none" xmlns="http://www.w3.org/2000/svg">
<path fill-rule="evenodd" clip-rule="evenodd" d="M29.5952 22.0766C29.757 25.7408 26.7998 28.8392 22.9907 28.9949C22.7101 29.0067 9.03209 28.9791 9.03209 28.9791C5.24139 29.2669 1.92376 26.543 1.62477 22.8926C1.60224 22.6206 1.60838 7.94438 1.60838 7.94438C1.44045 4.27631 4.39355 1.16998 8.20473 1.00835C8.48939 0.994555 22.149 1.02018 22.149 1.02018C25.9581 0.736351 29.286 3.48002 29.5809 7.14809C29.6016 7.41221 29.5952 22.0766 29.5952 22.0766Z" stroke="#FAF9F7" stroke-width="2" stroke-linecap="round" stroke-linejoin="round"/>
<path d="M29.6016 10.9597L36.1876 5.56967C37.8196 4.23367 40.2676 5.39767 40.2656 7.50367L40.2416 22.2017C40.2396 24.3077 37.7896 25.4617 36.1616 24.1257L29.6016 18.7357" stroke="#FAF9F7" stroke-width="2" stroke-linecap="round" stroke-linejoin="round"/>
</svg>
